<svg data-v-fde0c5aa="" xmlns="http://www.w3.org/2000/svg" viewBox="0 0 300 300" class="font"><!----><defs data-v-fde0c5aa=""><!----></defs><rect data-v-fde0c5aa="" fill="#1C40DB" x="0" y="0" width="300px" height="300px" class="logo-background-square"></rect><defs data-v-fde0c5aa=""><!----></defs><g data-v-fde0c5aa="" id="d34fae66-536e-4b0f-8fb3-2d6079856a81" fill="#CECFD0" transform="matrix(2.592199984178467,0,0,2.592199984178467,38.10769396210741,121.57652677794479)"><path d="M6.78 12.61L6.78 12.61Q6.59 12.77 6.31 12.86Q6.02 12.95 5.64 12.95L5.64 12.95Q5.14 12.95 4.81 12.82Q4.48 12.70 4.38 12.39L4.38 12.39Q3.99 11.16 3.74 10.40Q3.49 9.63 3.35 9.06L3.35 9.06L3.28 9.06Q3.23 9.88 3.21 10.56Q3.19 11.24 3.19 11.89Q3.18 12.53 3.16 13.19Q3.14 13.85 3.09 14.64L3.09 14.64Q2.91 14.71 2.62 14.76Q2.32 14.81 2.03 14.81L2.03 14.81Q1.41 14.81 1.07 14.62Q0.73 14.42 0.73 13.90L0.73 13.90L1.13 6.76Q1.25 6.58 1.62 6.37Q2.00 6.16 2.69 6.16L2.69 6.16Q3.43 6.16 3.85 6.39Q4.27 6.62 4.47 7.14L4.47 7.14Q4.59 7.48 4.74 7.91Q4.89 8.34 5.03 8.81Q5.18 9.27 5.32 9.72Q5.46 10.18 5.57 10.54L5.57 10.54L5.64 10.54Q5.98 9.37 6.31 8.27Q6.65 7.17 6.93 6.43L6.93 6.43Q7.14 6.31 7.47 6.24Q7.80 6.16 8.20 6.16L8.20 6.16Q8.89 6.16 9.32 6.36Q9.76 6.57 9.83 6.94L9.83 6.94Q9.88 7.22 9.95 7.81Q10.01 8.39 10.08 9.11Q10.15 9.84 10.22 10.65Q10.29 11.47 10.35 12.22Q10.42 12.96 10.46 13.59Q10.50 14.21 10.51 14.55L10.51 14.55Q10.28 14.69 10.02 14.75Q9.76 14.81 9.35 14.81L9.35 14.81Q8.82 14.81 8.46 14.63Q8.09 14.45 8.06 13.92L8.06 13.92Q7.98 12.39 7.96 11.17Q7.94 9.95 7.90 9.13L7.90 9.13L7.83 9.13Q7.69 9.67 7.42 10.50Q7.15 11.33 6.78 12.61ZM14.80 13.19L14.80 13.19Q15.04 13.19 15.32 13.14Q15.61 13.09 15.75 13.01L15.75 13.01L15.75 11.89L14.74 11.97Q14.35 12.00 14.10 12.14Q13.85 12.28 13.85 12.56L13.85 12.56Q13.85 12.84 14.06 13.01Q14.28 13.19 14.80 13.19ZM14.69 7.69L14.69 7.69Q15.44 7.69 16.06 7.84Q16.69 7.99 17.13 8.31Q17.57 8.62 17.81 9.11Q18.05 9.59 18.05 10.25L18.05 10.25L18.05 13.38Q18.05 13.75 17.84 13.98Q17.64 14.21 17.36 14.38L17.36 14.38Q16.45 14.92 14.80 14.92L14.80 14.92Q14.06 14.92 13.46 14.78Q12.87 14.64 12.44 14.36Q12.01 14.08 11.78 13.65Q11.55 13.22 11.55 12.64L11.55 12.64Q11.55 11.68 12.12 11.16Q12.70 10.64 13.90 10.51L13.90 10.51L15.74 10.32L15.74 10.22Q15.74 9.81 15.38 9.64Q15.02 9.46 14.35 9.46L14.35 9.46Q13.82 9.46 13.31 9.58Q12.81 9.69 12.40 9.86L12.40 9.86Q12.22 9.73 12.10 9.47Q11.97 9.21 11.97 8.93L11.97 8.93Q11.97 8.57 12.14 8.35Q12.32 8.13 12.68 7.98L12.68 7.98Q13.09 7.83 13.64 7.76Q14.20 7.69 14.69 7.69ZM20.57 12.96L20.57 12.96Q20.41 12.61 20.24 12.18Q20.06 11.75 19.87 11.19Q19.68 10.63 19.48 9.91Q19.28 9.18 19.05 8.25L19.05 8.25Q19.25 8.05 19.58 7.90Q19.91 7.76 20.30 7.76L20.30 7.76Q20.79 7.76 21.11 7.96Q21.43 8.16 21.59 8.72L21.59 8.72L22.69 12.57L22.75 12.57Q22.92 12.10 23.08 11.54Q23.24 10.98 23.39 10.38Q23.55 9.79 23.68 9.19Q23.81 8.60 23.91 8.02L23.91 8.02Q24.42 7.76 25.02 7.76L25.02 7.76Q25.51 7.76 25.83 7.97Q26.15 8.18 26.15 8.69L26.15 8.69Q26.15 9.07 26.05 9.57Q25.96 10.07 25.80 10.63Q25.63 11.19 25.42 11.78Q25.20 12.38 24.96 12.95Q24.72 13.52 24.47 14.04Q24.22 14.55 23.98 14.95L23.98 14.95Q23.59 15.64 23.25 16.07Q22.92 16.51 22.61 16.75Q22.30 17.00 21.99 17.09Q21.69 17.18 21.35 17.18L21.35 17.18Q20.76 17.18 20.40 16.83Q20.03 16.48 19.96 15.92L19.96 15.92Q20.41 15.57 20.86 15.14Q21.31 14.71 21.67 14.27L21.67 14.27Q21.43 14.20 21.16 13.94Q20.89 13.68 20.57 12.96ZM27.24 13.05L27.24 5.59Q27.38 5.54 27.69 5.50Q28 5.45 28.32 5.45L28.32 5.45Q28.63 5.45 28.88 5.49Q29.12 5.53 29.29 5.66Q29.46 5.78 29.54 6.00Q29.62 6.22 29.62 6.57L29.62 6.57L29.62 7.94Q29.97 7.80 30.29 7.74Q30.60 7.69 30.98 7.69L30.98 7.69Q31.65 7.69 32.26 7.92Q32.86 8.16 33.32 8.62Q33.78 9.07 34.05 9.74Q34.31 10.42 34.31 11.30L34.31 11.30Q34.31 12.21 34.04 12.89Q33.77 13.57 33.28 14.01Q32.79 14.46 32.08 14.69Q31.37 14.92 30.52 14.92L30.52 14.92Q29.60 14.92 28.95 14.71Q28.31 14.49 27.86 14.17L27.86 14.17Q27.24 13.73 27.24 13.05L27.24 13.05ZM30.52 13.05L30.52 13.05Q31.16 13.05 31.52 12.61Q31.88 12.17 31.88 11.30L31.88 11.30Q31.88 10.42 31.51 9.98Q31.15 9.55 30.53 9.55L30.53 9.55Q30.25 9.55 30.05 9.60Q29.85 9.66 29.61 9.77L29.61 9.77L29.61 12.82Q29.76 12.92 29.98 12.99Q30.20 13.05 30.52 13.05ZM39.07 14.92L39.07 14.92Q38.25 14.92 37.54 14.69Q36.83 14.46 36.31 14.00Q35.78 13.54 35.48 12.84Q35.18 12.14 35.18 11.20L35.18 11.20Q35.18 10.28 35.48 9.61Q35.78 8.95 36.27 8.52Q36.76 8.09 37.39 7.89Q38.02 7.69 38.68 7.69L38.68 7.69Q39.42 7.69 40.03 7.91Q40.64 8.13 41.08 8.53Q41.52 8.92 41.77 9.46Q42.01 10.01 42.01 10.65L42.01 10.65Q42.01 11.13 41.75 11.38Q41.48 11.63 41.01 11.70L41.01 11.70L37.55 12.22Q37.70 12.68 38.18 12.92Q38.65 13.15 39.27 13.15L39.27 13.15Q39.84 13.15 40.35 13.00Q40.87 12.85 41.19 12.66L41.19 12.66Q41.41 12.80 41.57 13.05Q41.72 13.30 41.72 13.58L41.72 13.58Q41.72 14.21 41.13 14.52L41.13 14.52Q40.68 14.76 40.12 14.84Q39.56 14.92 39.07 14.92ZM38.68 9.42L38.68 9.42Q38.35 9.42 38.10 9.53Q37.86 9.65 37.70 9.82Q37.55 10.00 37.47 10.21Q37.39 10.43 37.38 10.65L37.38 10.65L39.77 10.26Q39.73 9.98 39.47 9.70Q39.20 9.42 38.68 9.42ZM45.91 6.01L45.91 6.01Q45.91 5.47 46.26 5.11Q46.62 4.75 47.21 4.75L47.21 4.75Q47.80 4.75 48.15 5.11Q48.51 5.47 48.51 6.01L48.51 6.01Q48.51 6.54 48.15 6.90Q47.80 7.27 47.21 7.27L47.21 7.27Q46.62 7.27 46.26 6.90Q45.91 6.54 45.91 6.01ZM48.40 8.99L48.40 14.69Q48.24 14.71 47.94 14.76Q47.64 14.81 47.33 14.81L47.33 14.81Q47.03 14.81 46.78 14.77Q46.54 14.73 46.37 14.60Q46.20 14.48 46.11 14.26Q46.02 14.04 46.02 13.69L46.02 13.69L46.02 7.99Q46.17 7.97 46.47 7.92Q46.77 7.87 47.08 7.87L47.08 7.87Q47.39 7.87 47.63 7.91Q47.88 7.95 48.05 8.08Q48.22 8.20 48.31 8.42Q48.40 8.64 48.40 8.99L48.40 8.99ZM55.65 12.67L55.65 12.67Q55.65 13.73 54.85 14.34Q54.05 14.94 52.50 14.94L52.50 14.94Q51.91 14.94 51.41 14.85Q50.90 14.77 50.55 14.60Q50.19 14.42 49.99 14.15Q49.78 13.89 49.78 13.52L49.78 13.52Q49.78 13.19 49.92 12.96Q50.06 12.73 50.26 12.57L50.26 12.57Q50.67 12.80 51.19 12.97Q51.72 13.15 52.40 13.15L52.40 13.15Q52.84 13.15 53.07 13.02Q53.30 12.89 53.30 12.68L53.30 12.68Q53.30 12.49 53.13 12.38Q52.96 12.26 52.57 12.19L52.57 12.19L52.15 12.11Q50.93 11.87 50.34 11.36Q49.74 10.85 49.74 9.90L49.74 9.90Q49.74 9.38 49.97 8.96Q50.19 8.54 50.60 8.26Q51.00 7.98 51.57 7.83Q52.14 7.67 52.82 7.67L52.82 7.67Q53.34 7.67 53.79 7.75Q54.25 7.83 54.59 7.98Q54.92 8.13 55.12 8.38Q55.31 8.62 55.31 8.96L55.31 8.96Q55.31 9.28 55.19 9.51Q55.08 9.74 54.89 9.90L54.89 9.90Q54.78 9.83 54.56 9.75Q54.33 9.67 54.07 9.61Q53.80 9.55 53.53 9.51Q53.26 9.46 53.03 9.46L53.03 9.46Q52.57 9.46 52.32 9.57Q52.07 9.67 52.07 9.90L52.07 9.90Q52.07 10.05 52.21 10.15Q52.35 10.25 52.74 10.33L52.74 10.33L53.17 10.43Q54.52 10.74 55.08 11.28Q55.65 11.82 55.65 12.67ZM59.63 13.69L59.63 7.90Q59.63 7.18 59.87 6.67Q60.12 6.16 60.54 5.83Q60.96 5.50 61.52 5.35Q62.09 5.19 62.73 5.19L62.73 5.19Q63.77 5.19 64.26 5.47Q64.75 5.74 64.75 6.40L64.75 6.40Q64.75 6.68 64.63 6.90Q64.51 7.13 64.37 7.24L64.37 7.24Q64.11 7.17 63.82 7.12Q63.53 7.07 63.15 7.07L63.15 7.07Q62.55 7.07 62.22 7.27Q61.88 7.48 61.88 7.98L61.88 7.98L61.88 8.43L64.18 8.43Q64.26 8.58 64.34 8.81Q64.41 9.04 64.41 9.32L64.41 9.32Q64.41 9.81 64.20 10.03Q63.98 10.25 63.62 10.25L63.62 10.25L62.01 10.25L62.01 14.69Q61.87 14.73 61.56 14.77Q61.26 14.81 60.94 14.81L60.94 14.81Q60.63 14.81 60.39 14.77Q60.14 14.73 59.98 14.60Q59.81 14.48 59.72 14.26Q59.63 14.04 59.63 13.69L59.63 13.69ZM68.00 9.91L68.00 14.69Q67.86 14.73 67.56 14.77Q67.26 14.81 66.93 14.81L66.93 14.81Q66.63 14.81 66.38 14.77Q66.14 14.73 65.97 14.60Q65.80 14.48 65.71 14.26Q65.62 14.04 65.62 13.69L65.62 13.69L65.62 9.49Q65.62 9.17 65.74 8.94Q65.86 8.71 66.08 8.53L66.08 8.53Q66.30 8.34 66.63 8.20Q66.96 8.05 67.34 7.94Q67.72 7.83 68.12 7.76Q68.53 7.70 68.94 7.70L68.94 7.70Q69.61 7.70 70.00 7.96Q70.39 8.22 70.39 8.81L70.39 8.81Q70.39 9.00 70.34 9.19Q70.28 9.38 70.20 9.53L70.20 9.53Q69.90 9.53 69.59 9.56Q69.29 9.59 68.99 9.65Q68.70 9.70 68.44 9.77Q68.18 9.83 68.00 9.91L68.00 9.91ZM74.97 14.92L74.97 14.92Q74.14 14.92 73.44 14.69Q72.73 14.46 72.20 14.00Q71.68 13.54 71.38 12.84Q71.08 12.14 71.08 11.20L71.08 11.20Q71.08 10.28 71.38 9.61Q71.68 8.95 72.17 8.52Q72.66 8.09 73.29 7.89Q73.92 7.69 74.58 7.69L74.58 7.69Q75.32 7.69 75.93 7.91Q76.54 8.13 76.98 8.53Q77.42 8.92 77.66 9.46Q77.91 10.01 77.91 10.65L77.91 10.65Q77.91 11.13 77.64 11.38Q77.38 11.63 76.90 11.70L76.90 11.70L73.44 12.22Q73.60 12.68 74.07 12.92Q74.55 13.15 75.17 13.15L75.17 13.15Q75.74 13.15 76.25 13.00Q76.76 12.85 77.08 12.66L77.08 12.66Q77.31 12.80 77.46 13.05Q77.62 13.30 77.62 13.58L77.62 13.58Q77.62 14.21 77.03 14.52L77.03 14.52Q76.58 14.76 76.02 14.84Q75.46 14.92 74.97 14.92ZM74.58 9.42L74.58 9.42Q74.24 9.42 74.00 9.53Q73.75 9.65 73.60 9.82Q73.44 10.00 73.37 10.21Q73.29 10.43 73.28 10.65L73.28 10.65L75.67 10.26Q75.63 9.98 75.36 9.70Q75.10 9.42 74.58 9.42ZM82.66 14.92L82.66 14.92Q81.83 14.92 81.12 14.69Q80.42 14.46 79.89 14.00Q79.37 13.54 79.06 12.84Q78.76 12.14 78.76 11.20L78.76 11.20Q78.76 10.28 79.06 9.61Q79.37 8.95 79.86 8.52Q80.35 8.09 80.98 7.89Q81.61 7.69 82.26 7.69L82.26 7.69Q83.01 7.69 83.61 7.91Q84.22 8.13 84.66 8.53Q85.11 8.92 85.35 9.46Q85.60 10.01 85.60 10.65L85.60 10.65Q85.60 11.13 85.33 11.38Q85.06 11.63 84.59 11.70L84.59 11.70L81.13 12.22Q81.28 12.68 81.76 12.92Q82.24 13.15 82.85 13.15L82.85 13.15Q83.43 13.15 83.94 13.00Q84.45 12.85 84.77 12.66L84.77 12.66Q84.99 12.80 85.15 13.05Q85.30 13.30 85.30 13.58L85.30 13.58Q85.30 14.21 84.71 14.52L84.71 14.52Q84.27 14.76 83.71 14.84Q83.15 14.92 82.66 14.92ZM82.26 9.42L82.26 9.42Q81.93 9.42 81.68 9.53Q81.44 9.65 81.28 9.82Q81.13 10.00 81.05 10.21Q80.98 10.43 80.96 10.65L80.96 10.65L83.36 10.26Q83.31 9.98 83.05 9.70Q82.78 9.42 82.26 9.42Z"></path></g><!----><!----></svg>